# xmcd CD database file
#
# Track frame offsets:
#	150
#	41030
#	73915
#	106362
#	144477
#	183355
#	236742
#	271890
#	307010
#
# Disc length: 4637 seconds
#
# Revision: 0
# Processed by: cddbd v1.5.2PL0 Copyright (c) Steve Scherf et al.
# Submitted via: CDex 1.70beta2
#
DISCID=85121b09
DTITLE=Oláh Kálmán Sextet - Night Silence
DYEAR=1900
DGENRE=Jazz
TTITLE0=Valley of megidoo
TTITLE1=Song for miles
TTITLE2=Polymodal blues
TTITLE3=Sunset
TTITLE4=Strangers in my flat
TTITLE5=Night silence
TTITLE6=The endless fifth
TTITLE7=It never entered my mind
TTITLE8=Caravan
EXTD=
EXTT0=
EXTT1=
EXTT2=
EXTT3=
EXTT4=
EXTT5=
EXTT6=
EXTT7=
EXTT8=
PLAYORDER=
